GRF
version=1
nRows=21
nColumns=28
inDegrees=no
endheader
time	plate1_ground_force_vx	plate1_ground_force_vy	plate1_ground_force_vz	plate1_ground_force_px	plate1_ground_force_py	plate1_ground_force_pz	plate1_ground_torque_x	plate1_ground_torque_y	plate1_ground_torque_z	plate2_ground_force_vx	plate2_ground_force_vy	plate2_ground_force_vz	plate2_ground_force_px	plate2_ground_force_py	plate2_ground_force_pz	plate2_ground_torque_x	plate2_ground_torque_y	plate2_ground_torque_z	plate3_ground_force_vx	plate3_ground_force_vy	plate3_ground_force_vz	plate3_ground_force_px	plate3_ground_force_py	plate3_ground_force_pz	plate3_ground_torque_x	plate3_ground_torque_y	plate3_ground_torque_z
      0.53000000	      0.00000000	      0.00000000	      0.00000000	      0.00000000	      0.00000000	      0.00000000	      0.00000000	      0.00000000	      0.00000000	     23.97458399	    557.94023222	     -7.79472087	      0.84631355	      0.00000000	      0.15049298	      0.00000000	      2.53342896	      0.00000000	      0.00000000	      0.00000000	      0.00000000	      0.00000000	      0.00000000	      0.00000000	      0.00000000	      0.00000000	      0.00000000
      0.54000000	      0.00000000	      0.00000000	      0.00000000	      0.00000000	      0.00000000	      0.00000000	      0.00000000	      0.00000000	      0.00000000	     29.93142262	    576.61948062	     -7.78163970	      0.84869922	      0.00000000	      0.15034621	      0.00000000	      2.60400872	      0.00000000	      0.00000000	      0.00000000	      0.00000000	      0.00000000	      0.00000000	      0.00000000	      0.00000000	      0.00000000	      0.00000000
      0.55000000	      0.00000000	      0.00000000	      0.00000000	      0.00000000	      0.00000000	      0.00000000	      0.00000000	      0.00000000	      0.00000000	     36.46918202	    595.32804217	     -7.64346543	      0.85078987	      0.00000000	      0.15022282	      0.00000000	      2.68829745	     -0.00000000	      0.00000000	      0.00000000	      0.00000000	      0.00000000	      0.00000000	      0.00000000	      0.00000000	      0.00000000	      0.00000000
      0.56000000	      0.00000000	      0.00000000	      0.00000000	      0.00000000	      0.00000000	      0.00000000	      0.00000000	      0.00000000	      0.00000000	     43.58207460	    613.24097416	     -7.47822031	      0.85261106	      0.00000000	      0.15014890	      0.00000000	      2.77199543	     -0.00000000	      0.00000000	      0.00000000	      0.00000000	      0.00000000	      0.00000000	      0.00000000	      0.00000000	      0.00000000	      0.00000000
      0.57000000	      0.00000000	      0.00000000	      0.00000000	      0.00000000	      0.00000000	      0.00000000	      0.00000000	      0.00000000	      0.00000000	     51.21943252	    629.48330905	     -7.39379793	      0.85419302	      0.00000000	      0.15014688	      0.00000000	      2.83586146	     -0.00000000	      0.00000000	      0.00000000	      0.00000000	      0.00000000	      0.00000000	      0.00000000	      0.00000000	      0.00000000	      0.00000000
      0.58000000	      0.00000000	      0.00000000	      0.00000000	      0.00000000	      0.00000000	      0.00000000	      0.00000000	      0.00000000	      0.00000000	     59.28348996	    643.15321131	     -7.47645521	      0.85557146	      0.00000000	      0.15023223	      0.00000000	      2.86028013	     -0.00000000	      0.00000000	      0.00000000	      0.00000000	      0.00000000	      0.00000000	      0.00000000	      0.00000000	      0.00000000	      0.00000000
      0.59000000	      0.00000000	      0.00000000	      0.00000000	      0.00000000	      0.00000000	      0.00000000	      0.00000000	      0.00000000	      0.00000000	     67.63103717	    653.33690077	     -7.76654839	      0.85678675	      0.00000000	      0.15041070	      0.00000000	      2.82970681	     -0.00000000	      0.00000000	      0.00000000	      0.00000000	      0.00000000	      0.00000000	      0.00000000	      0.00000000	      0.00000000	      0.00000000
      0.60000000	      0.00000000	      0.00000000	      0.00000000	      0.00000000	      0.00000000	      0.00000000	      0.00000000	      0.00000000	      0.00000000	     76.07452160	    659.12529776	     -8.24629454	      0.85788183	      0.00000000	      0.15067687	      0.00000000	      2.73585473	     -0.00000000	      0.00000000	      0.00000000	      0.00000000	      0.00000000	      0.00000000	      0.00000000	      0.00000000	      0.00000000	      0.00000000
      0.61000000	      0.00000000	      0.00000000	      0.00000000	      0.00000000	      0.00000000	      0.00000000	      0.00000000	      0.00000000	      0.00000000	     84.38095315	    659.63982031	     -8.83978755	      0.85889903	      0.00000000	      0.15101447	      0.00000000	      2.57900220	     -0.00000000	      0.00000000	      0.00000000	      0.00000000	      1.46400196	      0.00000000	      0.09515112	      0.00000000	      0.00000000	      0.00000000
      0.62000000	      0.00000000	      0.00000000	      0.00000000	      0.00000000	      0.00000000	      0.00000000	      0.00000000	      0.00000000	      0.00000000	     92.27048757	    654.06756463	     -9.42322611	      0.85987660	      0.00000000	      0.15139857	      0.00000000	      2.36732732	     -0.00000000	      0.00000000	      0.00000000	      0.00000000	      1.46400196	      0.00000000	      0.09515112	      0.00000000	      0.00000000	      0.00000000
      0.63000000	      0.00000000	      0.00000000	      0.00000000	      0.00000000	      0.00000000	      0.00000000	      0.00000000	      0.00000000	      0.00000000	     99.41802098	    641.70194619	     -9.84334545	      0.86084714	      0.00000000	      0.15180030	      0.00000000	      2.11462909	     -0.00000000	      0.00000000	      0.00000000	      0.00000000	      1.46400196	      0.00000000	      0.09515112	      0.00000000	      0.00000000	      0.00000000
      0.64000000	      0.00000000	      0.00000000	      0.00000000	      0.00000000	      0.00000000	      0.00000000	      0.00000000	      0.00000000	      0.00000000	    105.45975976	    621.98769487	     -9.94271720	      0.86184241	      0.00000000	      0.15219569	      0.00000000	      1.83712760	      0.00000000	     -2.47342036	     64.59971672	     -5.30891221	      1.46346679	      0.00000000	      0.09513435	     -0.00000000	     -0.02537777	     -0.00000000
      0.65000000	      0.00000000	      0.00000000	      0.00000000	      0.00000000	      0.00000000	      0.00000000	      0.00000000	      0.00000000	      0.00000000	    110.00443336	    594.57534080	     -9.59007674	      0.86290935	      0.00000000	      0.15258098	      0.00000000	      1.55021086	      0.00000000	     -5.66791202	     94.41443445	     -7.36968428	      1.45999649	      0.00000000	      0.09539120	     -0.00000000	     -0.04014959	     -0.00000000
      0.66000000	      0.00000000	      0.00000000	      0.00000000	      0.00000000	      0.00000000	      0.00000000	      0.00000000	      0.00000000	      0.00000000	    112.64876410	    559.39236388	     -8.71161704	      0.86413808	      0.00000000	      0.15299660	      0.00000000	      1.26597631	      0.00000000	    -10.92200533	    129.79870444	     -9.36051465	      1.45712242	      0.00000000	      0.09615807	     -0.00000000	     -0.05617965	     -0.00000000
      0.67000000	      0.00000000	      0.00000000	      0.00000000	      0.00000000	      0.00000000	      0.00000000	      0.00000000	      0.00000000	      0.00000000	    113.00062142	    516.73141554	     -7.31636357	      0.86569540	      0.00000000	      0.15355994	      0.00000000	      0.99218563	      0.00000000	    -18.55657130	    169.22971389	    -10.86903854	      1.45545501	      0.00000000	      0.09718215	     -0.00000000	     -0.07349938	     -0.00000000
      0.68000000	      0.00000000	      0.00000000	      0.00000000	      0.00000000	      0.00000000	      0.00000000	      0.00000000	      0.00000000	      0.00000000	    110.71852515	    467.34302632	     -5.50731780	      0.86784907	      0.00000000	      0.15450287	      0.00000000	      0.73281516	      0.00000000	    -28.48890605	    211.05555784	    -11.50786193	      1.45546260	      0.00000000	      0.09818715	     -0.00000000	     -0.09250027	     -0.00000000
      0.69000000	      0.00000000	      0.00000000	      0.00000000	      0.00000000	      0.00000000	      0.00000000	      0.00000000	      0.00000000	      0.00000000	    105.57647037	    412.50788663	     -3.47167269	      0.87096355	      0.00000000	      0.15620269	      0.00000000	      0.48980421	      0.00000000	    -40.15319122	    253.87759035	    -11.04142577	      1.45730765	      0.00000000	      0.09895685	     -0.00000000	     -0.11347641	     -0.00000000
      0.70000000	      0.00000000	      0.00000000	      0.00000000	      0.00000000	      0.00000000	      0.00000000	      0.00000000	      0.00000000	      0.00000000	     97.55240935	    354.05697879	     -1.44842488	      0.87545027	      0.00000000	      0.15918427	      0.00000000	      0.26507885	      0.00000000	    -52.58140470	    296.65744400	     -9.46497609	      1.46078308	      0.00000000	      0.09938978	     -0.00000000	     -0.13589208	     -0.00000000
      0.71000000	      0.00000000	      0.00000000	      0.00000000	      0.00000000	      0.00000000	      0.00000000	      0.00000000	      0.00000000	      0.00000000	     86.91801994	    294.30730429	      0.32104210	      0.88166726	      0.00000000	      0.16406225	      0.00000000	      0.06178177	      0.00000000	    -64.62670356	    338.58225784	     -6.99892175	      1.46537786	      0.00000000	      0.09950324	     -0.00000000	     -0.15796425	     -0.00000000
      0.72000000	      0.00000000	      0.00000000	      0.00000000	      0.00000000	      0.00000000	      0.00000000	      0.00000000	      0.00000000	      0.00000000	     74.28787596	    235.88827807	      1.64678476	      0.88978496	      0.00000000	      0.17139938	      0.00000000	     -0.11591924	      0.00000000	    -75.24272608	    378.88391378	     -4.00490075	      1.47043882	      0.00000000	      0.09939346	     -0.00000000	     -0.17715014	     -0.00000000
      0.73000000	      0.00000000	      0.00000000	      0.00000000	      0.00000000	      0.00000000	      0.00000000	      0.00000000	      0.00000000	      0.00000000	     60.58461340	    181.45533441	      2.43217661	      0.89966154	      0.00000000	      0.18149308	      0.00000000	     -0.26421973	      0.00000000	    -83.70984453	    416.78468482	     -0.86686747	      1.47535662	      0.00000000	      0.09917906	     -0.00000000	     -0.19158909	      0.00000000
